Coordinates
version=1
nRows=10
nColumns=63
inDegrees=yes

Units are S.I. units (second, meters, Newtons, ...)
If the header above contains a line with 'inDegrees', this indicates whether rotational values are in degrees (yes) or radians (no).

endheader
time	pelvis_tilt	pelvis_list	pelvis_rotation	pelvis_tx	pelvis_ty	pelvis_tz	hip_flexion_r	hip_adduction_r	hip_rotation_r	knee_angle_r	knee_angle_r_beta	ankle_angle_r	subtalar_angle_r	mtp_angle_r	hip_flexion_l	hip_adduction_l	hip_rotation_l	knee_angle_l	knee_angle_l_beta	ankle_angle_l	subtalar_angle_l	mtp_angle_l	L5_S1_Flex_Ext	L5_S1_Lat_Bending	L5_S1_axial_rotation	L4_L5_Flex_Ext	L4_L5_Lat_Bending	L4_L5_axial_rotation	L3_L4_Flex_Ext	L3_L4_Lat_Bending	L3_L4_axial_rotation	L2_L3_Flex_Ext	L2_L3_Lat_Bending	L2_L3_axial_rotation	L1_L2_Flex_Ext	L1_L2_Lat_Bending	L1_L2_axial_rotation	L1_T12_Flex_Ext	L1_T12_Lat_Bending	L1_T12_axial_rotation	Abs_r3	Abs_r2	Abs_r1	Abs_t1	Abs_t2	neck_flexion	neck_bending	neck_rotation	arm_flex_r	arm_add_r	arm_rot_r	elbow_flex_r	pro_sup_r	wrist_flex_r	wrist_dev_r	arm_flex_l	arm_add_l	arm_rot_l	elbow_flex_l	pro_sup_l	wrist_flex_l	wrist_dev_l
      2.00000000	     -1.97504605	     -5.34470532	    100.25117067	      0.24501981	      1.00019370	      0.16223747	      9.22501503	     -1.82058523	    -21.08193861	     20.40399564	      0.35611690	     40.22955616	     14.68631075	      0.00000000	     12.80075409	     -3.34167116	    -14.47352647	     21.82050528	      0.38083966	     38.07616585	     17.42169462	      0.00000000	     -0.15433096	     -0.34533464	      0.85449832	     -0.28660803	     -0.45929508	      0.90790446	     -0.25355034	     -0.83964665	      0.90790446	     -0.17638486	     -0.83964665	      0.74768603	     -0.14331173	     -0.70420641	      0.69427988	     -0.08818471	     -0.53492336	      0.64087374	     -1.10237064	     -3.90649456	      4.75246328	      0.00000000	      0.00000000	     -8.95144123	      8.46492662	    -14.68218014	     53.25443185	    -18.92284073	     29.37957372	    100.78924339	     50.05573323	      8.46340806	     20.90135672	      3.48345715	    -20.88998726	     50.83815904	     44.27483228	     86.91670370	     -9.25103943	     -4.85166976
      2.01666667	     -2.03121648	     -5.59114818	    100.26541254	      0.24485415	      1.00026698	      0.16106177	      9.28951358	     -1.87807806	    -20.98599828	     20.19321955	      0.35243817	     40.14306713	     14.70754626	      0.00000000	     12.76599590	     -3.17263081	    -14.46691089	     21.40961114	      0.37366821	     37.90888953	     17.45392418	      0.00000000	     -0.13642851	     -0.35723716	      0.85641707	     -0.25336138	     -0.47512542	      0.90994313	     -0.22413840	     -0.86858643	      0.90994313	     -0.15592414	     -0.86858643	      0.74936493	     -0.12668751	     -0.72847801	      0.69583887	     -0.07795525	     -0.55336036	      0.64231280	     -0.97449520	     -4.04113819	      4.76313481	      0.00000000	      0.00000000	     -9.12472908	      8.31737649	    -14.14703201	     54.57563330	    -17.75424639	     31.92105055	    100.08940015	     44.36392352	      8.31095660	     21.74841089	      3.18605472	    -21.00357278	     50.43925324	     44.56565462	     86.80121605	     -9.34042137	     -4.86938443
      2.03333333	     -1.94533097	     -5.96364320	    100.38512574	      0.24455818	      1.00019404	      0.15999618	      9.47391409	     -1.82149349	    -21.10511383	     19.96329388	      0.34842521	     39.97433307	     14.69587097	      0.00000000	     12.99519294	     -3.14111881	    -14.39023780	     21.19346155	      0.36989568	     37.73556973	     17.50890149	      0.00000000	     -0.09927783	     -0.36790431	      0.90619070	     -0.18436886	     -0.48931273	      0.96282762	     -0.16310355	     -0.89452254	      0.96282762	     -0.11346463	     -0.89452254	      0.79291687	     -0.09218939	     -0.75023047	      0.73627995	     -0.05672735	     -0.56988378	      0.67964303	     -0.70913163	     -4.16180716	      5.03996084	      0.00000000	      0.00000000	     -9.08028575	      8.47093639	    -14.66902722	     55.30741556	    -16.76669231	     33.67556049	    100.02560562	     44.07836507	      8.31183317	     22.16433801	      3.27212612	    -21.03859409	     50.69483540	     44.59849067	     86.93301370	     -9.22869653	     -4.80496722
      2.05000000	     -1.63882827	     -6.16616925	    100.84632452	      0.24287689	      0.99987301	      0.15948671	      9.54786719	     -1.67103809	    -21.68298746	     19.91162109	      0.34752335	     39.86140265	     14.71200718	      0.00000000	     13.22632704	     -3.22676451	    -13.89341543	     21.12186819	      0.36864614	     37.63679523	     17.45726640	      0.00000000	     -0.08381155	     -0.31995039	      0.78098386	     -0.15564643	     -0.42553402	      0.82979535	     -0.13769400	     -0.77792738	      0.82979535	     -0.09578822	     -0.77792738	      0.68336088	     -0.07782741	     -0.65244284	      0.63454938	     -0.04788992	     -0.49560316	      0.58573789	     -0.59865754	     -3.61934282	      4.34359792	      0.00000000	      0.00000000	     -9.12904126	      7.48958596	    -13.56705862	     57.29114904	    -16.17623391	     37.82529792	     99.83480268	     37.05123254	      6.72557033	     22.32861546	      2.86730794	    -20.74773906	     50.09475578	     44.73379992	     87.06970330	     -9.31108591	     -4.44802733
      2.06666667	     -1.48084400	     -6.35460056	    101.10844706	      0.24151935	      0.99971634	      0.15911743	      9.66557464	     -1.67282614	    -22.15167865	     20.02026646	      0.34941957	     39.69588113	     14.66669584	      0.00000000	     13.31513892	     -3.19253288	    -13.65689465	     20.92643042	      0.36523511	     37.42372281	     17.44052873	      0.00000000	     -0.07584961	     -0.29657276	      0.71645794	     -0.14086031	     -0.39444177	      0.76123656	     -0.12461332	     -0.72108701	      0.76123656	     -0.08668852	     -0.72108701	      0.62690070	     -0.07043395	     -0.60477117	      0.58212208	     -0.04334047	     -0.45939121	      0.53734345	     -0.54178617	     -3.35489038	      3.98472412	      0.00000000	      0.00000000	     -8.93734559	      6.88793747	    -12.71441705	     58.47089937	    -15.47931559	     40.68602821	    100.05954169	     36.59927847	      6.34531818	     22.30098583	      2.86446669	    -20.54385694	     50.24664709	     44.67925412	     87.09145986	     -9.26944582	     -4.02282250
      2.08333333	     -1.37895686	     -6.63812200	    101.34828650	      0.24055314	      0.99945299	      0.15879199	      9.82020527	     -1.69105079	    -22.60990313	     20.01854597	      0.34938954	     39.43792979	     14.50941426	      0.00000000	     13.44855440	     -3.11557682	    -13.51612749	     20.67714309	      0.36088423	     37.18075717	     17.49845991	      0.00000000	     -0.05389396	     -0.29716261	      0.68001260	     -0.10008648	     -0.39522627	      0.72251339	     -0.08854239	     -0.72252116	      0.72251339	     -0.06159541	     -0.72252116	      0.59501103	     -0.05004594	     -0.60597399	      0.55251024	     -0.03079501	     -0.46030488	      0.51000945	     -0.38495920	     -3.36156284	      3.78202608	      0.00000000	      0.00000000	     -8.68484331	      6.66540600	    -12.21273098	     59.05626632	    -15.17630690	     42.91142048	    100.80036948	     36.70370401	      6.41996296	     22.43004418	      2.85424268	    -20.44618786	     50.30367056	     44.64961723	     87.13395830	     -9.25580146	     -3.82005734
      2.10000000	     -1.09811976	     -6.69830319	    101.91636084	      0.23865221	      0.99919502	      0.15904117	      9.87521066	     -1.66029101	    -23.55931561	     20.28348186	      0.35401354	     39.18141513	     14.48237241	      0.00000000	     13.56866820	     -3.17249080	    -12.98559161	     20.65760108	      0.36054315	     37.08168502	     17.43700778	      0.00000000	     -0.05589318	     -0.25000513	      0.51286868	     -0.10379922	     -0.33250682	      0.54492297	     -0.09182690	     -0.60786247	      0.54492297	     -0.06388031	     -0.60786247	      0.44876009	     -0.05190240	     -0.50981046	      0.41670580	     -0.03193736	     -0.38725794	      0.38465151	     -0.39923938	     -2.82810801	      2.85242172	      0.00000000	      0.00000000	     -8.52775782	      6.06054636	    -10.31896330	     59.74017138	    -14.95080770	     45.49894253	    101.50892925	     37.28402931	      5.88992322	     21.82143243	      2.64001170	    -20.06550203	     49.94346063	     44.53540304	     87.11419888	     -9.40677422	     -3.40171075
      2.11666667	     -1.05596979	     -6.75962270	    102.13502701	      0.23747909	      0.99905669	      0.15903909	      9.86076414	     -1.74183188	    -23.99822484	     20.36559027	      0.35544660	     38.88394651	     14.36290811	      0.00000000	     13.56817120	     -3.10546097	    -13.00810246	     20.63531458	      0.36015418	     36.93228486	     17.40326049	      0.00000000	     -0.06019912	     -0.24929183	      0.48050201	     -0.11179578	     -0.33155813	      0.51053339	     -0.09890113	     -0.60612815	      0.51053339	     -0.06880157	     -0.60612815	      0.42043926	     -0.05590090	     -0.50835590	      0.39040789	     -0.03439778	     -0.38615304	      0.36037651	     -0.42999628	     -2.82003904	      2.67240805	      0.00000000	      0.00000000	     -8.47523862	      5.86068478	     -9.56214130	     59.27374580	    -15.28612188	     46.61029962	    102.71479890	     37.73152372	      6.03000506	     21.90541711	      2.59717812	    -19.95277230	     49.81778367	     44.57645735	     87.11673323	     -9.43332427	     -3.34992921
      2.13333333	     -0.62789292	     -6.76057019	    103.24699315	      0.23464611	      0.99892961	      0.15933235	      9.69869490	     -1.78888960	    -26.47853087	     20.45406494	      0.35699078	     38.86067113	     15.74252902	      0.00000000	     13.77684057	     -3.17064215	    -11.76823314	     20.68598321	      0.36103852	     36.84735813	     17.20700786	      0.00000000	     -0.04233008	     -0.18548928	      0.25122816	     -0.07861119	     -0.24670075	      0.26692992	     -0.06954409	     -0.45099864	      0.26692992	     -0.04837905	     -0.45099864	      0.21982464	     -0.03930771	     -0.37824974	      0.20412288	     -0.02418741	     -0.28732290	      0.18842112	     -0.30235953	     -2.09829186	      1.39725568	      0.00000000	      0.00000000	     -8.77508355	      5.82712639	     -7.57949244	     58.79988736	    -15.90240957	     47.49559532	    103.97971628	     49.38591196	      5.20459316	     20.75252887	      2.39211982	    -19.38303849	     49.33120221	     44.19163418	     87.33476980	     -9.24747099	     -3.13082934
      2.15000000	     -0.40050578	     -6.71161349	    103.71223921	      0.23271083	      0.99903341	      0.15921157	      9.62466263	     -1.76318151	    -27.31297033	     20.55848434	      0.35881324	     38.79374365	     15.91571910	      0.00000000	     13.69243982	     -3.22140202	    -11.45307365	     20.56092444	      0.35885583	     36.70099061	     17.20784557	      0.00000000	     -0.02263849	     -0.15434059	      0.24823851	     -0.04204195	     -0.20527299	      0.26375342	     -0.03719278	     -0.37526372	      0.26375342	     -0.02587353	     -0.37526372	      0.21720870	     -0.02102211	     -0.31473134	      0.20169379	     -0.01293564	     -0.23907358	      0.18617889	     -0.16170450	     -1.74593167	      1.38062814	      0.00000000	      0.00000000	     -9.33297247	      6.18668750	     -6.66801857	     57.51838015	    -17.10878225	     46.82149603	    105.27300363	     60.92954731	      6.22281821	     21.27908709	      2.78647617	    -19.06112944	     50.24898121	     43.76941948	     87.19780614	     -9.25655898	     -3.21435878
